<svg width="16" height="16" viewBox="0 0 16 16" fill="none" xmlns="http://www.w3.org/2000/svg">
<g id="icon-arrow-up">
<path id="arrow-angle-up" d="M4.20717 10.7392C3.67099 10.2031 4.34494 9.65362 4.34494 9.65362L7.99856 6L11.6559 9.65732C11.6559 9.65362 12.294 10.2352 11.7899 10.7392C11.2859 11.2433 10.7108 10.6012 10.7108 10.608L7.99856 7.89569L5.29305 10.6012C5.29305 10.608 4.74336 11.2754 4.20717 10.7392Z" fill="#F5F5F5"/>
<mask id="mask0_0_205" style="mask-type:alpha" maskUnits="userSpaceOnUse" x="4" y="6" width="8" height="5">
<path id="arrow-angle-up_2" d="M4.20717 10.7392C3.67099 10.2031 4.34494 9.65362 4.34494 9.65362L7.99856 6L11.6559 9.65732C11.6559 9.65362 12.294 10.2352 11.7899 10.7392C11.2859 11.2433 10.7108 10.6012 10.7108 10.608L7.99856 7.89569L5.29305 10.6012C5.29305 10.608 4.74336 11.2754 4.20717 10.7392Z" fill="white"/>
</mask>
<g mask="url(#mask0_0_205)">
</g>
</g>
</svg>
