<svg width="16" height="16" viewBox="0 0 16 16" fill="none" xmlns="http://www.w3.org/2000/svg">
<g id="icon-arrow">
<path id="arrow-angle-down" d="M4.20717 6.2083C3.67099 6.74448 4.34494 7.29392 4.34494 7.29392C5.56281 8.51179 7.99856 10.9475 7.99856 10.9475C7.99856 10.9475 10.4368 8.50933 11.6559 7.29022C11.6559 7.29392 12.294 6.71234 11.7899 6.2083C11.2859 5.70427 10.7108 6.34634 10.7108 6.33957C9.80674 7.24366 7.99856 9.05184 7.99856 9.05184C7.99856 9.05184 6.19489 7.24817 5.29305 6.34634C5.29305 6.33957 4.74336 5.67212 4.20717 6.2083Z" fill="#A1A9B5"/>
<mask id="mask0_0_209" style="mask-type:alpha" maskUnits="userSpaceOnUse" x="4" y="6" width="8" height="5">
<path id="arrow-angle-down_2" d="M4.20717 6.2083C3.67099 6.74448 4.34494 7.29392 4.34494 7.29392C5.56281 8.51179 7.99856 10.9475 7.99856 10.9475C7.99856 10.9475 10.4368 8.50933 11.6559 7.29022C11.6559 7.29392 12.294 6.71234 11.7899 6.2083C11.2859 5.70427 10.7108 6.34634 10.7108 6.33957C9.80674 7.24366 7.99856 9.05184 7.99856 9.05184C7.99856 9.05184 6.19489 7.24817 5.29305 6.34634C5.29305 6.33957 4.74336 5.67212 4.20717 6.2083Z" fill="white"/>
</mask>
<g mask="url(#mask0_0_209)">
</g>
</g>
</svg>
